<?xml version="1.0" encoding="utf-8"?>
<COLLADA xmlns="http://www.collada.org/2005/11/COLLADASchema" version="1.4.1" xmlns:xsi="http://www.w3.org/2001/XMLSchema-instance">
  <asset>
    <contributor>
      <author>Blender User</author>
      <authoring_tool>Blender 4.5.9 LTS commit date:2026-04-20, commit time:14:24, hash:8bf95cbd38d1</authoring_tool>
    </contributor>
    <created>2026-07-30T14:54:18</created>
    <modified>2026-07-30T14:54:18</modified>
    <unit name="meter" meter="1"/>
    <up_axis>Z_UP</up_axis>
  </asset>
  <library_effects>
    <effect id="plane_animation-effect">
      <profile_COMMON>
        <technique sid="common">
          <lambert>
            <emission>
              <color sid="emission">0 0 0 1</color>
            </emission>
            <diffuse>
              <color sid="diffuse">0.64 0.64 0.64 1</color>
            </diffuse>
            <index_of_refraction>
              <float sid="ior">1</float>
            </index_of_refraction>
          </lambert>
        </technique>
      </profile_COMMON>
    </effect>
  </library_effects>
  <library_images/>
  <library_materials>
    <material id="plane_animation-material" name="plane_animation">
      <instance_effect url="#plane_animation-effect"/>
    </material>
  </library_materials>
  <library_geometries>
    <geometry id="Plane_002-mesh" name="Plane.002">
      <mesh>
        <source id="Plane_002-mesh-positions">
          <float_array id="Plane_002-mesh-positions-array" count="18">0.5 0 1.122607 -0.5 0 1.122607 -0.5 1.52213e-7 1.942337 0.5 1.52213e-7 1.942337 -0.5 1.52213e-7 2.16785 0.5 1.52213e-7 2.16785</float_array>
          <technique_common>
            <accessor source="#Plane_002-mesh-positions-array" count="6" stride="3">
              <param name="X" type="float"/>
              <param name="Y" type="float"/>
              <param name="Z" type="float"/>
            </accessor>
          </technique_common>
        </source>
        <source id="Plane_002-mesh-normals">
          <float_array id="Plane_002-mesh-normals-array" count="6">0 -1 1.85687e-7 0 -1 0</float_array>
          <technique_common>
            <accessor source="#Plane_002-mesh-normals-array" count="2" stride="3">
              <param name="X" type="float"/>
              <param name="Y" type="float"/>
              <param name="Z" type="float"/>
            </accessor>
          </technique_common>
        </source>
        <source id="Plane_002-mesh-map-0">
          <float_array id="Plane_002-mesh-map-0-array" count="24">1.05884e-4 0.5394684 0.5617856 0.5394684 0.5617856 0.9998942 1.05884e-4 0.9998942 0.5617856 0.9998942 0.5617856 0.9998942 1.05884e-4 0.9998942 1.05884e-4 0.5394684 0.5617856 0.9998942 1.05884e-4 0.9998942 1.05884e-4 0.9998942 0.5617856 0.9998942</float_array>
          <technique_common>
            <accessor source="#Plane_002-mesh-map-0-array" count="12" stride="2">
              <param name="S" type="float"/>
              <param name="T" type="float"/>
            </accessor>
          </technique_common>
        </source>
        <vertices id="Plane_002-mesh-vertices">
          <input semantic="POSITION" source="#Plane_002-mesh-positions"/>
        </vertices>
        <triangles material="plane_animation-material" count="4">
          <input semantic="VERTEX" source="#Plane_002-mesh-vertices" offset="0"/>
          <input semantic="NORMAL" source="#Plane_002-mesh-normals" offset="1"/>
          <input semantic="TEXCOORD" source="#Plane_002-mesh-map-0" offset="2" set="0"/>
          <p>1 0 0 0 0 1 3 0 2 2 1 3 3 1 4 5 1 5 2 0 6 1 0 7 3 0 8 4 1 9 2 1 10 5 1 11</p>
        </triangles>
      </mesh>
    </geometry>
    <geometry id="Plane_001-mesh" name="Plane.001">
      <mesh>
        <source id="Plane_001-mesh-positions">
          <float_array id="Plane_001-mesh-positions-array" count="24">0.5 0 0 -0.5 0 0 -0.5 0 0.9598899 0.5 0 0.9598899 0.8 0 0 0.8 0 0.9598899 -0.8 0 0 -0.8 0 0.9598899</float_array>
          <technique_common>
            <accessor source="#Plane_001-mesh-positions-array" count="8" stride="3">
              <param name="X" type="float"/>
              <param name="Y" type="float"/>
              <param name="Z" type="float"/>
            </accessor>
          </technique_common>
        </source>
        <source id="Plane_001-mesh-normals">
          <float_array id="Plane_001-mesh-normals-array" count="3">0 -1 0</float_array>
          <technique_common>
            <accessor source="#Plane_001-mesh-normals-array" count="1" stride="3">
              <param name="X" type="float"/>
              <param name="Y" type="float"/>
              <param name="Z" type="float"/>
            </accessor>
          </technique_common>
        </source>
        <source id="Plane_001-mesh-map-0">
          <float_array id="Plane_001-mesh-map-0-array" count="36">1.05884e-4 1.05884e-4 0.5617856 1.05892e-4 0.5617856 0.5392566 0.5617856 0.5392566 0.5617856 1.05892e-4 0.5617856 1.05892e-4 1.05884e-4 1.05884e-4 1.05901e-4 0.5392567 1.05901e-4 0.5392567 1.05901e-4 0.5392567 1.05884e-4 1.05884e-4 0.5617856 0.5392566 0.5617856 0.5392566 0.5617856 0.5392566 0.5617856 1.05892e-4 1.05884e-4 1.05884e-4 1.05884e-4 1.05884e-4 1.05901e-4 0.5392567</float_array>
          <technique_common>
            <accessor source="#Plane_001-mesh-map-0-array" count="18" stride="2">
              <param name="S" type="float"/>
              <param name="T" type="float"/>
            </accessor>
          </technique_common>
        </source>
        <vertices id="Plane_001-mesh-vertices">
          <input semantic="POSITION" source="#Plane_001-mesh-positions"/>
        </vertices>
        <triangles material="plane_animation-material" count="6">
          <input semantic="VERTEX" source="#Plane_001-mesh-vertices" offset="0"/>
          <input semantic="NORMAL" source="#Plane_001-mesh-normals" offset="1"/>
          <input semantic="TEXCOORD" source="#Plane_001-mesh-map-0" offset="2" set="0"/>
          <p>1 0 0 0 0 1 3 0 2 3 0 3 0 0 4 4 0 5 1 0 6 2 0 7 7 0 8 2 0 9 1 0 10 3 0 11 5 0 12 3 0 13 4 0 14 6 0 15 1 0 16 7 0 17</p>
        </triangles>
      </mesh>
    </geometry>
  </library_geometries>
  <library_controllers>
    <controller id="Armature_001_Plane_002-skin" name="Armature_001">
      <skin source="#Plane_002-mesh">
        <bind_shape_matrix>1 0 0 0 0 1 0 0 0 0 1 0 0 0 0 1</bind_shape_matrix>
        <source id="Armature_001_Plane_002-skin-joints">
          <Name_array id="Armature_001_Plane_002-skin-joints-array" count="2">Bone Bone_001</Name_array>
          <technique_common>
            <accessor source="#Armature_001_Plane_002-skin-joints-array" count="2" stride="1">
              <param name="JOINT" type="name"/>
            </accessor>
          </technique_common>
        </source>
        <source id="Armature_001_Plane_002-skin-bind_poses">
          <float_array id="Armature_001_Plane_002-skin-bind_poses-array" count="32">1 0 0 0 0 1 0 0 0 0 1 0 0 0 0 1 1 0 0 0 0 1 0 0 0 0 1 -1.032275 0 0 0 1</float_array>
          <technique_common>
            <accessor source="#Armature_001_Plane_002-skin-bind_poses-array" count="2" stride="16">
              <param name="TRANSFORM" type="float4x4"/>
            </accessor>
          </technique_common>
        </source>
        <source id="Armature_001_Plane_002-skin-weights">
          <float_array id="Armature_001_Plane_002-skin-weights-array" count="8">1.73667e-4 0.9998263 8.3895e-7 0.9999991 1 1 1 1</float_array>
          <technique_common>
            <accessor source="#Armature_001_Plane_002-skin-weights-array" count="8" stride="1">
              <param name="WEIGHT" type="float"/>
            </accessor>
          </technique_common>
        </source>
        <joints>
          <input semantic="JOINT" source="#Armature_001_Plane_002-skin-joints"/>
          <input semantic="INV_BIND_MATRIX" source="#Armature_001_Plane_002-skin-bind_poses"/>
        </joints>
        <vertex_weights count="6">
          <input semantic="JOINT" source="#Armature_001_Plane_002-skin-joints" offset="0"/>
          <input semantic="WEIGHT" source="#Armature_001_Plane_002-skin-weights" offset="1"/>
          <vcount>2 2 1 1 1 1 </vcount>
          <v>0 0 1 1 0 2 1 3 1 4 1 5 1 6 1 7</v>
        </vertex_weights>
      </skin>
    </controller>
    <controller id="Armature_001_Plane_001-skin" name="Armature_001">
      <skin source="#Plane_001-mesh">
        <bind_shape_matrix>1 0 0 0 0 1 0 0 0 0 1 0 0 0 0 1</bind_shape_matrix>
        <source id="Armature_001_Plane_001-skin-joints">
          <Name_array id="Armature_001_Plane_001-skin-joints-array" count="2">Bone Bone_001</Name_array>
          <technique_common>
            <accessor source="#Armature_001_Plane_001-skin-joints-array" count="2" stride="1">
              <param name="JOINT" type="name"/>
            </accessor>
          </technique_common>
        </source>
        <source id="Armature_001_Plane_001-skin-bind_poses">
          <float_array id="Armature_001_Plane_001-skin-bind_poses-array" count="32">1 0 0 0 0 1 0 0 0 0 1 0 0 0 0 1 1 0 0 0 0 1 0 0 0 0 1 -1.032275 0 0 0 1</float_array>
          <technique_common>
            <accessor source="#Armature_001_Plane_001-skin-bind_poses-array" count="2" stride="16">
              <param name="TRANSFORM" type="float4x4"/>
            </accessor>
          </technique_common>
        </source>
        <source id="Armature_001_Plane_001-skin-weights">
          <float_array id="Armature_001_Plane_001-skin-weights-array" count="12">1 1 0.9934908 0.006509125 0.9989835 0.001016438 1 0.9989835 0.001016438 1 0.9934908 0.006509125</float_array>
          <technique_common>
            <accessor source="#Armature_001_Plane_001-skin-weights-array" count="12" stride="1">
              <param name="WEIGHT" type="float"/>
            </accessor>
          </technique_common>
        </source>
        <joints>
          <input semantic="JOINT" source="#Armature_001_Plane_001-skin-joints"/>
          <input semantic="INV_BIND_MATRIX" source="#Armature_001_Plane_001-skin-bind_poses"/>
        </joints>
        <vertex_weights count="8">
          <input semantic="JOINT" source="#Armature_001_Plane_001-skin-joints" offset="0"/>
          <input semantic="WEIGHT" source="#Armature_001_Plane_001-skin-weights" offset="1"/>
          <vcount>1 1 2 2 1 2 1 2 </vcount>
          <v>0 0 0 1 0 2 1 3 0 4 1 5 0 6 0 7 1 8 0 9 0 10 1 11</v>
        </vertex_weights>
      </skin>
    </controller>
  </library_controllers>
  <library_animations>
    <animation id="action_container-Armature_001" name="Armature_001">
      <animation id="Armature_001_Armature_001Action_Bone_001_pose_matrix" name="Armature_001">
        <source id="Armature_001_Armature_001Action_Bone_001_pose_matrix-input">
          <float_array id="Armature_001_Armature_001Action_Bone_001_pose_matrix-input-array" count="60">0.04166662 0.08333331 0.125 0.1666666 0.2083333 0.25 0.2916666 0.3333333 0.375 0.4166666 0.4583333 0.5 0.5416667 0.5833333 0.625 0.6666667 0.7083333 0.75 0.7916667 0.8333333 0.875 0.9166667 0.9583333 1 1.041667 1.083333 1.125 1.166667 1.208333 1.25 1.291667 1.333333 1.375 1.416667 1.458333 1.5 1.541667 1.583333 1.625 1.666667 1.708333 1.75 1.791667 1.833333 1.875 1.916667 1.958333 2 2.041667 2.083333 2.125 2.166667 2.208333 2.25 2.291667 2.333333 2.375 2.416667 2.458333 2.5</float_array>
          <technique_common>
            <accessor source="#Armature_001_Armature_001Action_Bone_001_pose_matrix-input-array" count="60" stride="1">
              <param name="TIME" type="float"/>
            </accessor>
          </technique_common>
        </source>
        <source id="Armature_001_Armature_001Action_Bone_001_pose_matrix-output">
          <float_array id="Armature_001_Armature_001Action_Bone_001_pose_matrix-output-array" count="960">1 0 0 0 0 1 0 0 0 0 1 1.032275 0 0 0 1 1 0 0 0 0 0.9996499 -0.02645682 -2.1447e-10 0 0.02645682 0.9996499 1.032275 0 0 0 1 1 0 0 0 0 0.9985932 -0.05302518 -4.2894e-10 0 0.05302518 0.9985932 1.032275 0 0 0 1 1 0 0 0 0 0.9968207 -0.07967748 -6.43411e-10 0 0.07967748 0.9968207 1.032275 0 0 0 1 1 0 0 0 0 0.994325 -0.1063853 -8.57867e-10 0 0.1063853 0.994325 1.032275 0 0 0 1 1 0 0 0 0 0.9911 -0.1331197 -1.07234e-9 0 0.1331197 0.9911 1.032275 0 0 0 1 1 0 0 0 0 0.9871411 -0.1598512 -1.28681e-9 0 0.1598512 0.9871411 1.032275 0 0 0 1 1 0 0 0 0 0.9824455 -0.1865498 -1.50128e-9 0 0.1865498 0.9824455 1.032275 0 0 0 1 1 0 0 0 0 0.9770117 -0.2131855 -1.71575e-9 0 0.2131855 0.9770117 1.032275 0 0 0 1 1 0 0 0 0 0.9708402 -0.2397277 -1.93022e-9 0 0.2397277 0.9708402 1.032275 0 0 0 1 1 0 0 0 0 0.9639327 -0.2661462 -2.14467e-9 0 0.2661462 0.9639327 1.032275 0 0 0 1 1 0 0 0 0 0.956293 -0.2924101 -2.35914e-9 0 0.2924101 0.956293 1.032275 0 0 0 1 1 0 0 0 0 0.9479264 -0.3184894 -2.57361e-9 0 0.3184894 0.9479264 1.032275 0 0 0 1 1 0 0 0 0 0.9388399 -0.3443541 -2.78808e-9 0 0.3443541 0.9388399 1.032275 0 0 0 1 1 0 0 0 0 0.929042 -0.3699742 -3.00255e-9 0 0.3699742 0.929042 1.032275 0 0 0 1 1 0 0 0 0 0.9185432 -0.3953208 -3.21702e-9 0 0.3953208 0.9185432 1.032275 0 0 0 1 1 0 0 0 0 0.9073551 -0.420365 -3.43148e-9 0 0.420365 0.9073551 1.032275 0 0 0 1 1 0 0 0 0 0.8954912 -0.4450792 -3.64595e-9 0 0.4450792 0.8954912 1.032275 0 0 0 1 1 0 0 0 0 0.8829664 -0.4694362 -3.86042e-9 0 0.4694362 0.8829664 1.032275 0 0 0 1 1 0 0 0 0 0.8697971 -0.4934097 -4.07489e-9 0 0.4934097 0.8697971 1.032275 0 0 0 1 1 0 0 0 0 0.8560007 -0.5169746 -4.28936e-9 0 0.5169746 0.8560007 1.032275 0 0 0 1 1 0 0 0 0 0.8415965 -0.5401068 -4.50383e-9 0 0.5401068 0.8415965 1.032275 0 0 0 1 1 0 0 0 0 0.8266045 -0.5627832 -4.71829e-9 0 0.5627832 0.8266045 1.032275 0 0 0 1 1 0 0 0 0 0.8110459 -0.5849825 -4.93276e-9 0 0.5849825 0.8110459 1.032275 0 0 0 1 1 0 0 0 0 0.7949433 -0.6066837 -5.14723e-9 0 0.6066837 0.7949433 1.032275 0 0 0 1 1 0 0 0 0 0.7783196 -0.6278684 -5.3617e-9 0 0.6278684 0.7783196 1.032275 0 0 0 1 1 0 0 0 0 0.7611991 -0.6485184 -5.57617e-9 0 0.6485184 0.7611991 1.032275 0 0 0 1 1 0 0 0 0 0.7436064 -0.6686176 -5.79064e-9 0 0.6686176 0.7436064 1.032275 0 0 0 1 1 0 0 0 0 0.725567 -0.6881515 -6.0051e-9 0 0.6881515 0.725567 1.032275 0 0 0 1 1 0 0 0 0 0.7071068 -0.7071068 -6.21957e-9 0 0.7071068 0.7071068 1.032275 0 0 0 1 1 0 0 0 0 0.7249584 -0.6887927 -6.01224e-9 0 0.6887927 0.7249584 1.032275 0 0 0 1 1 0 0 0 0 0.7424174 -0.6699376 -5.80494e-9 0 0.6699376 0.7424174 1.032275 0 0 0 1 1 0 0 0 0 0.7594606 -0.6505533 -5.59761e-9 0 0.6505533 0.7594606 1.032275 0 0 0 1 1 0 0 0 0 0.7760651 -0.6306527 -5.39029e-9 0 0.6306527 0.7760651 1.032275 0 0 0 1 1 0 0 0 0 0.7922082 -0.6102509 -5.18297e-9 0 0.6102509 0.7922082 1.032275 0 0 0 1 1 0 0 0 0 0.8078683 -0.589363 -4.97566e-9 0 0.589363 0.8078683 1.032275 0 0 0 1 1 0 0 0 0 0.823024 -0.5680065 -4.76834e-9 0 0.5680065 0.823024 1.032275 0 0 0 1 1 0 0 0 0 0.8376552 -0.5461994 -4.56102e-9 0 0.5461994 0.8376552 1.032275 0 0 0 1 1 0 0 0 0 0.8517424 -0.5239608 -4.35369e-9 0 0.5239608 0.8517424 1.032275 0 0 0 1 1 0 0 0 0 0.865267 -0.5013112 -4.14639e-9 0 0.5013112 0.865267 1.032275 0 0 0 1 1 0 0 0 0 0.8782116 -0.4782724 -3.93906e-9 0 0.4782724 0.8782116 1.032275 0 0 0 1 1 0 0 0 0 0.8905597 -0.4548664 -3.73174e-9 0 0.4548664 0.8905597 1.032275 0 0 0 1 1 0 0 0 0 0.9022962 -0.4311167 -3.52442e-9 0 0.4311167 0.9022962 1.032275 0 0 0 1 1 0 0 0 0 0.913407 -0.4070475 -3.3171e-9 0 0.4070475 0.913407 1.032275 0 0 0 1 1 0 0 0 0 0.9238795 -0.3826835 -3.10979e-9 0 0.3826835 0.9238795 1.032275 0 0 0 1 1 0 0 0 0 0.9337023 -0.3580504 -2.90247e-9 0 0.3580504 0.9337023 1.032275 0 0 0 1 1 0 0 0 0 0.9428653 -0.3331743 -2.69515e-9 0 0.3331743 0.9428653 1.032275 0 0 0 1 1 0 0 0 0 0.9513599 -0.3080818 -2.48782e-9 0 0.3080818 0.9513599 1.032275 0 0 0 1 1 0 0 0 0 0.9591789 -0.2827999 -2.28052e-9 0 0.2827999 0.9591789 1.032275 0 0 0 1 1 0 0 0 0 0.9663168 -0.2573556 -2.07319e-9 0 0.2573556 0.9663168 1.032275 0 0 0 1 1 0 0 0 0 0.972769 -0.2317767 -1.86587e-9 0 0.2317767 0.972769 1.032275 0 0 0 1 1 0 0 0 0 0.9785329 -0.2060905 -1.65855e-9 0 0.2060905 0.9785329 1.032275 0 0 0 1 1 0 0 0 0 0.9836072 -0.1803246 -1.45123e-9 0 0.1803246 0.9836072 1.032275 0 0 0 1 1 0 0 0 0 0.9879918 -0.1545066 -1.24392e-9 0 0.1545066 0.9879918 1.032275 0 0 0 1 1 0 0 0 0 0.9916883 -0.1286633 -1.0366e-9 0 0.1286633 0.9916883 1.032275 0 0 0 1 1 0 0 0 0 0.9946998 -0.1028221 -8.29274e-10 0 0.1028221 0.9946998 1.032275 0 0 0 1 1 0 0 0 0 0.9970304 -0.0770092 -6.21952e-10 0 0.0770092 0.9970304 1.032275 0 0 0 1 1 0 0 0 0 0.9986858 -0.05125105 -4.14644e-10 0 0.05125105 0.9986858 1.032275 0 0 0 1 1 0 0 0 0 0.9996729 -0.02557294 -2.07322e-10 0 0.02557294 0.9996729 1.032275 0 0 0 1 1 0 0 0 0 1 0 0 0 0 1 1.032275 0 0 0 1</float_array>
          <technique_common>
            <accessor source="#Armature_001_Armature_001Action_Bone_001_pose_matrix-output-array" count="60" stride="16">
              <param name="TRANSFORM" type="float4x4"/>
            </accessor>
          </technique_common>
        </source>
        <source id="Armature_001_Armature_001Action_Bone_001_pose_matrix-interpolation">
          <Name_array id="Armature_001_Armature_001Action_Bone_001_pose_matrix-interpolation-array" count="60">LINEAR LINEAR LINEAR LINEAR LINEAR LINEAR LINEAR LINEAR LINEAR LINEAR LINEAR LINEAR LINEAR LINEAR LINEAR LINEAR LINEAR LINEAR LINEAR LINEAR LINEAR LINEAR LINEAR LINEAR LINEAR LINEAR LINEAR LINEAR LINEAR LINEAR LINEAR LINEAR LINEAR LINEAR LINEAR LINEAR LINEAR LINEAR LINEAR LINEAR LINEAR LINEAR LINEAR LINEAR LINEAR LINEAR LINEAR LINEAR LINEAR LINEAR LINEAR LINEAR LINEAR LINEAR LINEAR LINEAR LINEAR LINEAR LINEAR LINEAR</Name_array>
          <technique_common>
            <accessor source="#Armature_001_Armature_001Action_Bone_001_pose_matrix-interpolation-array" count="60" stride="1">
              <param name="INTERPOLATION" type="name"/>
            </accessor>
          </technique_common>
        </source>
        <sampler id="Armature_001_Armature_001Action_Bone_001_pose_matrix-sampler">
          <input semantic="INPUT" source="#Armature_001_Armature_001Action_Bone_001_pose_matrix-input"/>
          <input semantic="OUTPUT" source="#Armature_001_Armature_001Action_Bone_001_pose_matrix-output"/>
          <input semantic="INTERPOLATION" source="#Armature_001_Armature_001Action_Bone_001_pose_matrix-interpolation"/>
        </sampler>
        <channel source="#Armature_001_Armature_001Action_Bone_001_pose_matrix-sampler" target="Armature_001_Bone_001/transform"/>
      </animation>
    </animation>
  </library_animations>
  <library_visual_scenes>
    <visual_scene id="Scene" name="Scene">
      <node id="Armature_001" name="Armature_001" type="NODE">
        <matrix sid="transform">1 0 0 0 0 1 0 -7.54979e-8 0 0 1 0 0 0 0 1</matrix>
        <node id="Armature_001_Bone" name="Bone" sid="Bone" type="JOINT">
          <matrix sid="transform">1 0 0 0 0 1 0 7.54979e-8 0 0 1 0 0 0 0 1</matrix>
          <node id="Armature_001_Bone_001" name="Bone.001" sid="Bone_001" type="JOINT">
            <matrix sid="transform">1 0 0 0 0 1 0 0 0 0 1 1.032275 0 0 0 1</matrix>
            <extra>
              <technique profile="blender">
                <tip_x sid="tip_x" type="float">0</tip_x>
                <tip_y sid="tip_y" type="float">1.032275</tip_y>
                <tip_z sid="tip_z" type="float">0</tip_z>
              </technique>
            </extra>
          </node>
          <extra>
            <technique profile="blender">
              <tip_x sid="tip_x" type="float">0</tip_x>
              <tip_y sid="tip_y" type="float">1.032275</tip_y>
              <tip_z sid="tip_z" type="float">0</tip_z>
            </technique>
          </extra>
        </node>
        <node id="Plane_001" name="Plane_001" type="NODE">
          <matrix sid="transform">1 0 0 0 0 1 0 0 0 0 1 0 0 0 0 1</matrix>
          <instance_controller url="#Armature_001_Plane_001-skin">
            <skeleton>#Armature_001_Bone</skeleton>
            <bind_material>
              <technique_common>
                <instance_material symbol="plane_animation-material" target="#plane_animation-material">
                  <bind_vertex_input semantic="Plane_001-mesh-map-0" input_semantic="TEXCOORD" input_set="0"/>
                </instance_material>
              </technique_common>
            </bind_material>
          </instance_controller>
        </node>
        <node id="Plane_002" name="Plane_002" type="NODE">
          <matrix sid="transform">1 0 0 0 0 1 0 0 0 0 1 0 0 0 0 1</matrix>
          <instance_controller url="#Armature_001_Plane_002-skin">
            <skeleton>#Armature_001_Bone</skeleton>
            <bind_material>
              <technique_common>
                <instance_material symbol="plane_animation-material" target="#plane_animation-material">
                  <bind_vertex_input semantic="Plane_002-mesh-map-0" input_semantic="TEXCOORD" input_set="0"/>
                </instance_material>
              </technique_common>
            </bind_material>
          </instance_controller>
        </node>
      </node>
    </visual_scene>
  </library_visual_scenes>
  <scene>
    <instance_visual_scene url="#Scene"/>
  </scene>
</COLLADA>